<?xml version="1.0" encoding="UTF-8" standalone="no"?>
<!DOCTYPE svg PUBLIC "-//W3C//DTD SVG 1.1//EN"
 "http://www.w3.org/Graphics/SVG/1.1/DTD/svg11.dtd">
<!-- Generated by graphviz version 5.0.0 (20220707.1540)
 -->
<!-- Title: dependencies Pages: 1 -->
<svg width="5392pt" height="247pt"
 viewBox="0.00 0.00 5392.00 246.80" xmlns="http://www.w3.org/2000/svg" xmlns:xlink="http://www.w3.org/1999/xlink">
<g id="graph0" class="graph" transform="scale(1 1) rotate(0) translate(4 242.8)">
<title>dependencies</title>
<polygon fill="white" stroke="transparent" points="-4,4 -4,-242.8 5388,-242.8 5388,4 -4,4"/>
<text text-anchor="middle" x="2692" y="-8.2" font-family="sans-serif" font-size="14.00">dependencies</text>
<g id="clust1" class="cluster">
<title>cluster_AppModule</title>
<polygon fill="none" stroke="black" stroke-dasharray="1,5" points="8,-32.8 8,-230.8 5376,-230.8 5376,-32.8 8,-32.8"/>
</g>
<g id="clust31" class="cluster">
<title>cluster_AppModule_bootstrap</title>
<polygon fill="none" stroke="black" points="3389,-170.8 3389,-222.8 3513,-222.8 3513,-170.8 3389,-170.8"/>
</g>
<g id="clust30" class="cluster">
<title>cluster_AppModule_exports</title>
<polygon fill="none" stroke="black" points="2730,-170.8 2730,-222.8 3381,-222.8 3381,-170.8 2730,-170.8"/>
</g>
<g id="clust29" class="cluster">
<title>cluster_AppModule_imports</title>
<polygon fill="none" stroke="black" points="5126,-40.8 5126,-92.8 5368,-92.8 5368,-40.8 5126,-40.8"/>
</g>
<g id="clust32" class="cluster">
<title>cluster_AppModule_providers</title>
<polygon fill="none" stroke="black" points="4518,-40.8 4518,-92.8 5118,-92.8 5118,-40.8 4518,-40.8"/>
</g>
<g id="clust2" class="cluster">
<title>cluster_AppModule_declarations</title>
<polygon fill="none" stroke="black" points="16,-40.8 16,-92.8 4510,-92.8 4510,-40.8 16,-40.8"/>
</g>
<!-- AppComponent -->
<g id="node1" class="node">
<title>AppComponent</title>
<polygon fill="#ffffb3" stroke="black" points="4501.94,-84.8 4396.06,-84.8 4396.06,-48.8 4501.94,-48.8 4501.94,-84.8"/>
<text text-anchor="middle" x="4449" y="-62.6" font-family="Times,serif" font-size="14.00">AppComponent</text>
</g>
<!-- AppModule -->
<g id="node27" class="node">
<title>AppModule</title>
<polygon fill="#8dd3c7" stroke="black" points="3193.66,-149.8 3190.66,-153.8 3169.66,-153.8 3166.66,-149.8 3110.34,-149.8 3110.34,-113.8 3193.66,-113.8 3193.66,-149.8"/>
<text text-anchor="middle" x="3152" y="-127.6" font-family="Times,serif" font-size="14.00">AppModule</text>
</g>
<!-- AppComponent&#45;&gt;AppModule -->
<g id="edge1" class="edge">
<title>AppComponent&#45;&gt;AppModule</title>
<path fill="none" stroke="black" d="M4466.57,-85.11C4466.57,-104.95 4466.57,-133.8 4466.57,-133.8 4466.57,-133.8 3203.88,-133.8 3203.88,-133.8"/>
<polygon fill="black" stroke="black" points="3203.88,-130.3 3193.88,-133.8 3203.88,-137.3 3203.88,-130.3"/>
</g>
<!-- AppComponent&#45;&gt;AppModule -->
<g id="edge2" class="edge">
<title>AppComponent&#45;&gt;AppModule</title>
<path fill="none" stroke="black" d="M4431.43,-84.91C4431.43,-104.14 4431.43,-131.8 4431.43,-131.8 4431.43,-131.8 3203.84,-131.8 3203.84,-131.8"/>
<polygon fill="black" stroke="black" points="3203.84,-128.3 3193.84,-131.8 3203.84,-135.3 3203.84,-128.3"/>
</g>
<!-- ComposerComponent -->
<g id="node2" class="node">
<title>ComposerComponent</title>
<polygon fill="#ffffb3" stroke="black" points="4378.38,-84.8 4239.62,-84.8 4239.62,-48.8 4378.38,-48.8 4378.38,-84.8"/>
<text text-anchor="middle" x="4309" y="-62.6" font-family="Times,serif" font-size="14.00">ComposerComponent</text>
</g>
<!-- ComposerComponent&#45;&gt;AppModule -->
<g id="edge3" class="edge">
<title>ComposerComponent&#45;&gt;AppModule</title>
<path fill="none" stroke="black" d="M4332.15,-84.97C4332.15,-103.89 4332.15,-130.8 4332.15,-130.8 4332.15,-130.8 3204,-130.8 3204,-130.8"/>
<polygon fill="black" stroke="black" points="3204,-127.3 3194,-130.8 3204,-134.3 3204,-127.3"/>
</g>
<!-- ComposerComponent&#45;&gt;AppModule -->
<g id="edge4" class="edge">
<title>ComposerComponent&#45;&gt;AppModule</title>
<path fill="none" stroke="black" d="M4285.85,-85.07C4285.85,-103.36 4285.85,-128.8 4285.85,-128.8 4285.85,-128.8 3203.7,-128.8 3203.7,-128.8"/>
<polygon fill="black" stroke="black" points="3203.7,-125.3 3193.7,-128.8 3203.7,-132.3 3203.7,-125.3"/>
</g>
<!-- ControlTemplate -->
<g id="node3" class="node">
<title>ControlTemplate</title>
<polygon fill="#ffffb3" stroke="black" points="4221.64,-84.8 4110.36,-84.8 4110.36,-48.8 4221.64,-48.8 4221.64,-84.8"/>
<text text-anchor="middle" x="4166" y="-62.6" font-family="Times,serif" font-size="14.00">ControlTemplate</text>
</g>
<!-- ControlTemplate&#45;&gt;AppModule -->
<g id="edge5" class="edge">
<title>ControlTemplate&#45;&gt;AppModule</title>
<path fill="none" stroke="black" d="M4166,-84.8C4166,-102.48 4166,-126.8 4166,-126.8 4166,-126.8 3203.96,-126.8 3203.96,-126.8"/>
<polygon fill="black" stroke="black" points="3203.96,-123.3 3193.96,-126.8 3203.96,-130.3 3203.96,-123.3"/>
</g>
<!-- DataInputComponent -->
<g id="node4" class="node">
<title>DataInputComponent</title>
<polygon fill="#ffffb3" stroke="black" points="4092.81,-84.8 3955.19,-84.8 3955.19,-48.8 4092.81,-48.8 4092.81,-84.8"/>
<text text-anchor="middle" x="4024" y="-62.6" font-family="Times,serif" font-size="14.00">DataInputComponent</text>
</g>
<!-- DataInputComponent&#45;&gt;AppModule -->
<g id="edge6" class="edge">
<title>DataInputComponent&#45;&gt;AppModule</title>
<path fill="none" stroke="black" d="M4024,-84.83C4024,-101.86 4024,-124.8 4024,-124.8 4024,-124.8 3203.76,-124.8 3203.76,-124.8"/>
<polygon fill="black" stroke="black" points="3203.76,-121.3 3193.76,-124.8 3203.76,-128.3 3203.76,-121.3"/>
</g>
<!-- DataInputV2Component -->
<g id="node5" class="node">
<title>DataInputV2Component</title>
<polygon fill="#ffffb3" stroke="black" points="3937.42,-84.8 3782.58,-84.8 3782.58,-48.8 3937.42,-48.8 3937.42,-84.8"/>
<text text-anchor="middle" x="3860" y="-62.6" font-family="Times,serif" font-size="14.00">DataInputV2Component</text>
</g>
<!-- DataInputV2Component&#45;&gt;AppModule -->
<g id="edge7" class="edge">
<title>DataInputV2Component&#45;&gt;AppModule</title>
<path fill="none" stroke="black" d="M3860,-84.83C3860,-101.2 3860,-122.8 3860,-122.8 3860,-122.8 3203.91,-122.8 3203.91,-122.8"/>
<polygon fill="black" stroke="black" points="3203.91,-119.3 3193.91,-122.8 3203.91,-126.3 3203.91,-119.3"/>
</g>
<!-- DataItemComponent -->
<g id="node6" class="node">
<title>DataItemComponent</title>
<polygon fill="#ffffb3" stroke="black" points="3764.91,-84.8 3631.09,-84.8 3631.09,-48.8 3764.91,-48.8 3764.91,-84.8"/>
<text text-anchor="middle" x="3698" y="-62.6" font-family="Times,serif" font-size="14.00">DataItemComponent</text>
</g>
<!-- DataItemComponent&#45;&gt;AppModule -->
<g id="edge8" class="edge">
<title>DataItemComponent&#45;&gt;AppModule</title>
<path fill="none" stroke="black" d="M3698,-84.81C3698,-100.85 3698,-121.8 3698,-121.8 3698,-121.8 3203.94,-121.8 3203.94,-121.8"/>
<polygon fill="black" stroke="black" points="3203.94,-118.3 3193.94,-121.8 3203.94,-125.3 3203.94,-118.3"/>
</g>
<!-- DocsComponent -->
<g id="node7" class="node">
<title>DocsComponent</title>
<polygon fill="#ffffb3" stroke="black" points="3613.1,-84.8 3502.9,-84.8 3502.9,-48.8 3613.1,-48.8 3613.1,-84.8"/>
<text text-anchor="middle" x="3558" y="-62.6" font-family="Times,serif" font-size="14.00">DocsComponent</text>
</g>
<!-- DocsComponent&#45;&gt;AppModule -->
<g id="edge9" class="edge">
<title>DocsComponent&#45;&gt;AppModule</title>
<path fill="none" stroke="black" d="M3559.26,-85.04C3559.26,-100.37 3559.26,-119.8 3559.26,-119.8 3559.26,-119.8 3203.67,-119.8 3203.67,-119.8"/>
<polygon fill="black" stroke="black" points="3203.67,-116.3 3193.67,-119.8 3203.67,-123.3 3203.67,-116.3"/>
</g>
<!-- HomeComponent -->
<g id="node8" class="node">
<title>HomeComponent</title>
<polygon fill="#ffffb3" stroke="black" points="3484.55,-84.8 3369.45,-84.8 3369.45,-48.8 3484.55,-48.8 3484.55,-84.8"/>
<text text-anchor="middle" x="3427" y="-62.6" font-family="Times,serif" font-size="14.00">HomeComponent</text>
</g>
<!-- HomeComponent&#45;&gt;AppModule -->
<g id="edge10" class="edge">
<title>HomeComponent&#45;&gt;AppModule</title>
<path fill="none" stroke="black" d="M3384.97,-84.92C3384.97,-99.58 3384.97,-117.8 3384.97,-117.8 3384.97,-117.8 3203.92,-117.8 3203.92,-117.8"/>
<polygon fill="black" stroke="black" points="3203.92,-114.3 3193.92,-117.8 3203.92,-121.3 3203.92,-114.3"/>
</g>
<!-- HostComponent -->
<g id="node9" class="node">
<title>HostComponent</title>
<polygon fill="#ffffb3" stroke="black" points="3350.78,-84.8 3243.22,-84.8 3243.22,-48.8 3350.78,-48.8 3350.78,-84.8"/>
<text text-anchor="middle" x="3297" y="-62.6" font-family="Times,serif" font-size="14.00">HostComponent</text>
</g>
<!-- HostComponent&#45;&gt;AppModule -->
<g id="edge11" class="edge">
<title>HostComponent&#45;&gt;AppModule</title>
<path fill="none" stroke="black" d="M3297,-85.05C3297,-98.98 3297,-115.8 3297,-115.8 3297,-115.8 3203.94,-115.8 3203.94,-115.8"/>
<polygon fill="black" stroke="black" points="3203.94,-112.3 3193.94,-115.8 3203.94,-119.3 3203.94,-112.3"/>
</g>
<!-- HowToUseComponent -->
<g id="node10" class="node">
<title>HowToUseComponent</title>
<polygon fill="#ffffb3" stroke="black" points="3224.88,-84.8 3079.12,-84.8 3079.12,-48.8 3224.88,-48.8 3224.88,-84.8"/>
<text text-anchor="middle" x="3152" y="-62.6" font-family="Times,serif" font-size="14.00">HowToUseComponent</text>
</g>
<!-- HowToUseComponent&#45;&gt;AppModule -->
<g id="edge12" class="edge">
<title>HowToUseComponent&#45;&gt;AppModule</title>
<path fill="none" stroke="black" d="M3152,-84.91C3152,-84.91 3152,-103.79 3152,-103.79"/>
<polygon fill="black" stroke="black" points="3148.5,-103.79 3152,-113.79 3155.5,-103.79 3148.5,-103.79"/>
</g>
<!-- MirroringModuleInstanceComponent -->
<g id="node11" class="node">
<title>MirroringModuleInstanceComponent</title>
<polygon fill="#ffffb3" stroke="black" points="3061.24,-84.8 2834.76,-84.8 2834.76,-48.8 3061.24,-48.8 3061.24,-84.8"/>
<text text-anchor="middle" x="2948" y="-62.6" font-family="Times,serif" font-size="14.00">MirroringModuleInstanceComponent</text>
</g>
<!-- MirroringModuleInstanceComponent&#45;&gt;AppModule -->
<g id="edge13" class="edge">
<title>MirroringModuleInstanceComponent&#45;&gt;AppModule</title>
<path fill="none" stroke="black" d="M2980.01,-85.05C2980.01,-98.98 2980.01,-115.8 2980.01,-115.8 2980.01,-115.8 3099.93,-115.8 3099.93,-115.8"/>
<polygon fill="black" stroke="black" points="3099.93,-119.3 3109.93,-115.8 3099.93,-112.3 3099.93,-119.3"/>
</g>
<!-- ModalComponent -->
<g id="node12" class="node">
<title>ModalComponent</title>
<polygon fill="#ffffb3" stroke="black" points="2816.88,-84.8 2699.12,-84.8 2699.12,-48.8 2816.88,-48.8 2816.88,-84.8"/>
<text text-anchor="middle" x="2758" y="-62.6" font-family="Times,serif" font-size="14.00">ModalComponent</text>
</g>
<!-- ModalComponent&#45;&gt;AppModule -->
<g id="edge14" class="edge">
<title>ModalComponent&#45;&gt;AppModule</title>
<path fill="none" stroke="black" d="M2777.38,-84.92C2777.38,-99.58 2777.38,-117.8 2777.38,-117.8 2777.38,-117.8 3100.12,-117.8 3100.12,-117.8"/>
<polygon fill="black" stroke="black" points="3100.12,-121.3 3110.12,-117.8 3100.12,-114.3 3100.12,-121.3"/>
</g>
<!-- NavbarComponent -->
<g id="node13" class="node">
<title>NavbarComponent</title>
<polygon fill="#ffffb3" stroke="black" points="2681.03,-84.8 2558.97,-84.8 2558.97,-48.8 2681.03,-48.8 2681.03,-84.8"/>
<text text-anchor="middle" x="2620" y="-62.6" font-family="Times,serif" font-size="14.00">NavbarComponent</text>
</g>
<!-- NavbarComponent&#45;&gt;AppModule -->
<g id="edge15" class="edge">
<title>NavbarComponent&#45;&gt;AppModule</title>
<path fill="none" stroke="black" d="M2620,-85.04C2620,-100.37 2620,-119.8 2620,-119.8 2620,-119.8 3100.25,-119.8 3100.25,-119.8"/>
<polygon fill="black" stroke="black" points="3100.25,-123.3 3110.25,-119.8 3100.25,-116.3 3100.25,-123.3"/>
</g>
<!-- NavbarElementComponent -->
<g id="node14" class="node">
<title>NavbarElementComponent</title>
<polygon fill="#ffffb3" stroke="black" points="2540.68,-84.8 2371.32,-84.8 2371.32,-48.8 2540.68,-48.8 2540.68,-84.8"/>
<text text-anchor="middle" x="2456" y="-62.6" font-family="Times,serif" font-size="14.00">NavbarElementComponent</text>
</g>
<!-- NavbarElementComponent&#45;&gt;AppModule -->
<g id="edge16" class="edge">
<title>NavbarElementComponent&#45;&gt;AppModule</title>
<path fill="none" stroke="black" d="M2456,-84.81C2456,-100.85 2456,-121.8 2456,-121.8 2456,-121.8 3100.29,-121.8 3100.29,-121.8"/>
<polygon fill="black" stroke="black" points="3100.29,-125.3 3110.29,-121.8 3100.29,-118.3 3100.29,-125.3"/>
</g>
<!-- NetworkComponent -->
<g id="node15" class="node">
<title>NetworkComponent</title>
<polygon fill="#ffffb3" stroke="black" points="2353.32,-84.8 2222.68,-84.8 2222.68,-48.8 2353.32,-48.8 2353.32,-84.8"/>
<text text-anchor="middle" x="2288" y="-62.6" font-family="Times,serif" font-size="14.00">NetworkComponent</text>
</g>
<!-- NetworkComponent&#45;&gt;AppModule -->
<g id="edge17" class="edge">
<title>NetworkComponent&#45;&gt;AppModule</title>
<path fill="none" stroke="black" d="M2288,-84.83C2288,-101.2 2288,-122.8 2288,-122.8 2288,-122.8 3100.33,-122.8 3100.33,-122.8"/>
<polygon fill="black" stroke="black" points="3100.33,-126.3 3110.33,-122.8 3100.33,-119.3 3100.33,-126.3"/>
</g>
<!-- OffcanvasComponent -->
<g id="node16" class="node">
<title>OffcanvasComponent</title>
<polygon fill="#ffffb3" stroke="black" points="2204.36,-84.8 2065.64,-84.8 2065.64,-48.8 2204.36,-48.8 2204.36,-84.8"/>
<text text-anchor="middle" x="2135" y="-62.6" font-family="Times,serif" font-size="14.00">OffcanvasComponent</text>
</g>
<!-- OffcanvasComponent&#45;&gt;AppModule -->
<g id="edge18" class="edge">
<title>OffcanvasComponent&#45;&gt;AppModule</title>
<path fill="none" stroke="black" d="M2135,-84.83C2135,-101.86 2135,-124.8 2135,-124.8 2135,-124.8 3100.24,-124.8 3100.24,-124.8"/>
<polygon fill="black" stroke="black" points="3100.24,-128.3 3110.24,-124.8 3100.24,-121.3 3100.24,-128.3"/>
</g>
<!-- ReteModuleComposerComponent -->
<g id="node17" class="node">
<title>ReteModuleComposerComponent</title>
<polygon fill="#ffffb3" stroke="black" points="2048.09,-84.8 1839.91,-84.8 1839.91,-48.8 2048.09,-48.8 2048.09,-84.8"/>
<text text-anchor="middle" x="1944" y="-62.6" font-family="Times,serif" font-size="14.00">ReteModuleComposerComponent</text>
</g>
<!-- ReteModuleComposerComponent&#45;&gt;AppModule -->
<g id="edge19" class="edge">
<title>ReteModuleComposerComponent&#45;&gt;AppModule</title>
<path fill="none" stroke="black" d="M1944,-84.8C1944,-102.48 1944,-126.8 1944,-126.8 1944,-126.8 3100.07,-126.8 3100.07,-126.8"/>
<polygon fill="black" stroke="black" points="3100.07,-130.3 3110.07,-126.8 3100.07,-123.3 3100.07,-130.3"/>
</g>
<!-- ReteModuleVisualizerComponent -->
<g id="node18" class="node">
<title>ReteModuleVisualizerComponent</title>
<polygon fill="#ffffb3" stroke="black" points="1822.07,-84.8 1613.93,-84.8 1613.93,-48.8 1822.07,-48.8 1822.07,-84.8"/>
<text text-anchor="middle" x="1718" y="-62.6" font-family="Times,serif" font-size="14.00">ReteModuleVisualizerComponent</text>
</g>
<!-- ReteModuleVisualizerComponent&#45;&gt;AppModule -->
<g id="edge20" class="edge">
<title>ReteModuleVisualizerComponent&#45;&gt;AppModule</title>
<path fill="none" stroke="black" d="M1718,-85.07C1718,-103.36 1718,-128.8 1718,-128.8 1718,-128.8 3100.25,-128.8 3100.25,-128.8"/>
<polygon fill="black" stroke="black" points="3100.25,-132.3 3110.25,-128.8 3100.25,-125.3 3100.25,-132.3"/>
</g>
<!-- ReteTheaterComposerComponent -->
<g id="node19" class="node">
<title>ReteTheaterComposerComponent</title>
<polygon fill="#ffffb3" stroke="black" points="1595.78,-84.8 1388.22,-84.8 1388.22,-48.8 1595.78,-48.8 1595.78,-84.8"/>
<text text-anchor="middle" x="1492" y="-62.6" font-family="Times,serif" font-size="14.00">ReteTheaterComposerComponent</text>
</g>
<!-- ReteTheaterComposerComponent&#45;&gt;AppModule -->
<g id="edge21" class="edge">
<title>ReteTheaterComposerComponent&#45;&gt;AppModule</title>
<path fill="none" stroke="black" d="M1492,-84.97C1492,-103.89 1492,-130.8 1492,-130.8 1492,-130.8 3100.14,-130.8 3100.14,-130.8"/>
<polygon fill="black" stroke="black" points="3100.14,-134.3 3110.14,-130.8 3100.14,-127.3 3100.14,-134.3"/>
</g>
<!-- ReteTheaterVisualizerComponent -->
<g id="node20" class="node">
<title>ReteTheaterVisualizerComponent</title>
<polygon fill="#ffffb3" stroke="black" points="1370.76,-84.8 1163.24,-84.8 1163.24,-48.8 1370.76,-48.8 1370.76,-84.8"/>
<text text-anchor="middle" x="1267" y="-62.6" font-family="Times,serif" font-size="14.00">ReteTheaterVisualizerComponent</text>
</g>
<!-- ReteTheaterVisualizerComponent&#45;&gt;AppModule -->
<g id="edge22" class="edge">
<title>ReteTheaterVisualizerComponent&#45;&gt;AppModule</title>
<path fill="none" stroke="black" d="M1267,-84.91C1267,-104.14 1267,-131.8 1267,-131.8 1267,-131.8 3099.99,-131.8 3099.99,-131.8"/>
<polygon fill="black" stroke="black" points="3099.99,-135.3 3109.99,-131.8 3099.99,-128.3 3099.99,-135.3"/>
</g>
<!-- SubnetComponent -->
<g id="node21" class="node">
<title>SubnetComponent</title>
<polygon fill="#ffffb3" stroke="black" points="1145.22,-84.8 1024.78,-84.8 1024.78,-48.8 1145.22,-48.8 1145.22,-84.8"/>
<text text-anchor="middle" x="1085" y="-62.6" font-family="Times,serif" font-size="14.00">SubnetComponent</text>
</g>
<!-- SubnetComponent&#45;&gt;AppModule -->
<g id="edge23" class="edge">
<title>SubnetComponent&#45;&gt;AppModule</title>
<path fill="none" stroke="black" d="M1085,-85.11C1085,-104.95 1085,-133.8 1085,-133.8 1085,-133.8 3100.24,-133.8 3100.24,-133.8"/>
<polygon fill="black" stroke="black" points="3100.24,-137.3 3110.24,-133.8 3100.24,-130.3 3100.24,-137.3"/>
</g>
<!-- TabnavComponent -->
<g id="node22" class="node">
<title>TabnavComponent</title>
<polygon fill="#ffffb3" stroke="black" points="1006.81,-84.8 883.19,-84.8 883.19,-48.8 1006.81,-48.8 1006.81,-84.8"/>
<text text-anchor="middle" x="945" y="-62.6" font-family="Times,serif" font-size="14.00">TabnavComponent</text>
</g>
<!-- TabnavComponent&#45;&gt;AppModule -->
<g id="edge24" class="edge">
<title>TabnavComponent&#45;&gt;AppModule</title>
<path fill="none" stroke="black" d="M945,-84.93C945,-105.37 945,-135.8 945,-135.8 945,-135.8 3099.88,-135.8 3099.88,-135.8"/>
<polygon fill="black" stroke="black" points="3099.88,-139.3 3109.88,-135.8 3099.88,-132.3 3099.88,-139.3"/>
</g>
<!-- TheaterInternalServiceModuleInstanceComponent -->
<g id="node23" class="node">
<title>TheaterInternalServiceModuleInstanceComponent</title>
<polygon fill="#ffffb3" stroke="black" points="864.78,-84.8 565.22,-84.8 565.22,-48.8 864.78,-48.8 864.78,-84.8"/>
<text text-anchor="middle" x="715" y="-62.6" font-family="Times,serif" font-size="14.00">TheaterInternalServiceModuleInstanceComponent</text>
</g>
<!-- TheaterInternalServiceModuleInstanceComponent&#45;&gt;AppModule -->
<g id="edge25" class="edge">
<title>TheaterInternalServiceModuleInstanceComponent&#45;&gt;AppModule</title>
<path fill="none" stroke="black" d="M715,-85.08C715,-106.12 715,-137.8 715,-137.8 715,-137.8 3100.21,-137.8 3100.21,-137.8"/>
<polygon fill="black" stroke="black" points="3100.21,-141.3 3110.21,-137.8 3100.21,-134.3 3100.21,-141.3"/>
</g>
<!-- TheaterModuleInstanceComponent -->
<g id="node24" class="node">
<title>TheaterModuleInstanceComponent</title>
<polygon fill="#ffffb3" stroke="black" points="547.27,-84.8 332.73,-84.8 332.73,-48.8 547.27,-48.8 547.27,-84.8"/>
<text text-anchor="middle" x="440" y="-62.6" font-family="Times,serif" font-size="14.00">TheaterModuleInstanceComponent</text>
</g>
<!-- TheaterModuleInstanceComponent&#45;&gt;AppModule -->
<g id="edge26" class="edge">
<title>TheaterModuleInstanceComponent&#45;&gt;AppModule</title>
<path fill="none" stroke="black" d="M440,-84.84C440,-106.46 440,-139.8 440,-139.8 440,-139.8 3100.22,-139.8 3100.22,-139.8"/>
<polygon fill="black" stroke="black" points="3100.22,-143.3 3110.22,-139.8 3100.22,-136.3 3100.22,-143.3"/>
</g>
<!-- UnderbarComponent -->
<g id="node25" class="node">
<title>UnderbarComponent</title>
<polygon fill="#ffffb3" stroke="black" points="315.19,-84.8 180.81,-84.8 180.81,-48.8 315.19,-48.8 315.19,-84.8"/>
<text text-anchor="middle" x="248" y="-62.6" font-family="Times,serif" font-size="14.00">UnderbarComponent</text>
</g>
<!-- UnderbarComponent&#45;&gt;AppModule -->
<g id="edge27" class="edge">
<title>UnderbarComponent&#45;&gt;AppModule</title>
<path fill="none" stroke="black" d="M248,-85.09C248,-107.01 248,-140.8 248,-140.8 248,-140.8 3100.11,-140.8 3100.11,-140.8"/>
<polygon fill="black" stroke="black" points="3100.11,-144.3 3110.11,-140.8 3100.11,-137.3 3100.11,-144.3"/>
</g>
<!-- VisualizerComponent -->
<g id="node26" class="node">
<title>VisualizerComponent</title>
<polygon fill="#ffffb3" stroke="black" points="162.36,-84.8 23.64,-84.8 23.64,-48.8 162.36,-48.8 162.36,-84.8"/>
<text text-anchor="middle" x="93" y="-62.6" font-family="Times,serif" font-size="14.00">VisualizerComponent</text>
</g>
<!-- VisualizerComponent&#45;&gt;AppModule -->
<g id="edge28" class="edge">
<title>VisualizerComponent&#45;&gt;AppModule</title>
<path fill="none" stroke="black" d="M69.86,-84.89C69.86,-107.93 69.86,-144.8 69.86,-144.8 69.86,-144.8 3100.18,-144.8 3100.18,-144.8"/>
<polygon fill="black" stroke="black" points="3100.18,-148.3 3110.18,-144.8 3100.18,-141.3 3100.18,-148.3"/>
</g>
<!-- VisualizerComponent&#45;&gt;AppModule -->
<g id="edge29" class="edge">
<title>VisualizerComponent&#45;&gt;AppModule</title>
<path fill="none" stroke="black" d="M116.14,-84.81C116.14,-107.29 116.14,-142.8 116.14,-142.8 116.14,-142.8 3100.24,-142.8 3100.24,-142.8"/>
<polygon fill="black" stroke="black" points="3100.24,-146.3 3110.24,-142.8 3100.24,-139.3 3100.24,-146.3"/>
</g>
<!-- DataInputComponent  -->
<g id="node30" class="node">
<title>DataInputComponent </title>
<polygon fill="#fb8072" stroke="black" points="3373.31,-214.8 3232.69,-214.8 3232.69,-178.8 3373.31,-178.8 3373.31,-214.8"/>
<text text-anchor="middle" x="3303" y="-192.6" font-family="Times,serif" font-size="14.00">DataInputComponent </text>
</g>
<!-- AppModule&#45;&gt;DataInputComponent  -->
<g id="edge32" class="edge">
<title>AppModule&#45;&gt;DataInputComponent </title>
<path fill="none" stroke="black" stroke-dasharray="5,2" d="M3193.67,-148.8C3215.54,-148.8 3237.85,-148.8 3237.85,-148.8 3237.85,-148.8 3237.85,-168.65 3237.85,-168.65"/>
<polygon fill="black" stroke="black" points="3234.35,-168.65 3237.85,-178.65 3241.35,-168.65 3234.35,-168.65"/>
</g>
<!-- NavbarComponent  -->
<g id="node31" class="node">
<title>NavbarComponent </title>
<polygon fill="#fb8072" stroke="black" points="3215.03,-214.8 3088.97,-214.8 3088.97,-178.8 3215.03,-178.8 3215.03,-214.8"/>
<text text-anchor="middle" x="3152" y="-192.6" font-family="Times,serif" font-size="14.00">NavbarComponent </text>
</g>
<!-- AppModule&#45;&gt;NavbarComponent  -->
<g id="edge33" class="edge">
<title>AppModule&#45;&gt;NavbarComponent </title>
<path fill="none" stroke="black" stroke-dasharray="5,2" d="M3152,-149.91C3152,-149.91 3152,-168.79 3152,-168.79"/>
<polygon fill="black" stroke="black" points="3148.5,-168.79 3152,-178.79 3155.5,-168.79 3148.5,-168.79"/>
</g>
<!-- NavbarElementComponent  -->
<g id="node32" class="node">
<title>NavbarElementComponent </title>
<polygon fill="#fb8072" stroke="black" points="3071.18,-214.8 2898.82,-214.8 2898.82,-178.8 3071.18,-178.8 3071.18,-214.8"/>
<text text-anchor="middle" x="2985" y="-192.6" font-family="Times,serif" font-size="14.00">NavbarElementComponent </text>
</g>
<!-- AppModule&#45;&gt;NavbarElementComponent  -->
<g id="edge34" class="edge">
<title>AppModule&#45;&gt;NavbarElementComponent </title>
<path fill="none" stroke="black" stroke-dasharray="5,2" d="M3110.18,-148.8C3088.44,-148.8 3066.35,-148.8 3066.35,-148.8 3066.35,-148.8 3066.35,-168.65 3066.35,-168.65"/>
<polygon fill="black" stroke="black" points="3062.85,-168.65 3066.35,-178.65 3069.85,-168.65 3062.85,-168.65"/>
</g>
<!-- OffcanvasComponent  -->
<g id="node33" class="node">
<title>OffcanvasComponent </title>
<polygon fill="#fb8072" stroke="black" points="2880.36,-214.8 2737.64,-214.8 2737.64,-178.8 2880.36,-178.8 2880.36,-214.8"/>
<text text-anchor="middle" x="2809" y="-192.6" font-family="Times,serif" font-size="14.00">OffcanvasComponent </text>
</g>
<!-- AppModule&#45;&gt;OffcanvasComponent  -->
<g id="edge35" class="edge">
<title>AppModule&#45;&gt;OffcanvasComponent </title>
<path fill="none" stroke="black" stroke-dasharray="5,2" d="M3110.1,-146.8C3028.77,-146.8 2857.4,-146.8 2857.4,-146.8 2857.4,-146.8 2857.4,-168.75 2857.4,-168.75"/>
<polygon fill="black" stroke="black" points="2853.9,-168.75 2857.4,-178.75 2860.9,-168.75 2853.9,-168.75"/>
</g>
<!-- AppComponent  -->
<g id="node34" class="node">
<title>AppComponent </title>
<polygon fill="#80b1d3" stroke="black" points="3505.44,-214.8 3396.56,-214.8 3396.56,-178.8 3505.44,-178.8 3505.44,-214.8"/>
<text text-anchor="middle" x="3451" y="-192.6" font-family="Times,serif" font-size="14.00">AppComponent </text>
</g>
<!-- AppModule&#45;&gt;AppComponent  -->
<g id="edge36" class="edge">
<title>AppModule&#45;&gt;AppComponent </title>
<path fill="none" stroke="black" stroke-dasharray="1,5" d="M3193.66,-146.8C3273.6,-146.8 3440.65,-146.8 3440.65,-146.8 3440.65,-146.8 3440.65,-168.75 3440.65,-168.75"/>
<polygon fill="black" stroke="black" points="3437.15,-168.75 3440.65,-178.75 3444.15,-168.75 3437.15,-168.75"/>
</g>
<!-- AppRoutingModule -->
<g id="node28" class="node">
<title>AppRoutingModule</title>
<polygon fill="#8dd3c7" stroke="black" points="5360.28,-84.8 5357.28,-88.8 5336.28,-88.8 5333.28,-84.8 5231.72,-84.8 5231.72,-48.8 5360.28,-48.8 5360.28,-84.8"/>
<text text-anchor="middle" x="5296" y="-62.6" font-family="Times,serif" font-size="14.00">AppRoutingModule</text>
</g>
<!-- AppRoutingModule&#45;&gt;AppModule -->
<g id="edge30" class="edge">
<title>AppRoutingModule&#45;&gt;AppModule</title>
<path fill="none" stroke="black" d="M5296,-84.89C5296,-107.93 5296,-144.8 5296,-144.8 5296,-144.8 3203.87,-144.8 3203.87,-144.8"/>
<polygon fill="black" stroke="black" points="3203.87,-141.3 3193.87,-144.8 3203.87,-148.3 3203.87,-141.3"/>
</g>
<!-- NgxPopper -->
<g id="node29" class="node">
<title>NgxPopper</title>
<polygon fill="#8dd3c7" stroke="black" points="5213.77,-84.8 5210.77,-88.8 5189.77,-88.8 5186.77,-84.8 5134.23,-84.8 5134.23,-48.8 5213.77,-48.8 5213.77,-84.8"/>
<text text-anchor="middle" x="5174" y="-62.6" font-family="Times,serif" font-size="14.00">NgxPopper</text>
</g>
<!-- NgxPopper&#45;&gt;AppModule -->
<g id="edge31" class="edge">
<title>NgxPopper&#45;&gt;AppModule</title>
<path fill="none" stroke="black" d="M5174,-84.81C5174,-107.29 5174,-142.8 5174,-142.8 5174,-142.8 3203.77,-142.8 3203.77,-142.8"/>
<polygon fill="black" stroke="black" points="3203.77,-139.3 3193.77,-142.8 3203.77,-146.3 3203.77,-139.3"/>
</g>
<!-- ModuleService -->
<g id="node35" class="node">
<title>ModuleService</title>
<ellipse fill="#fdb462" stroke="black" cx="5040" cy="-66.8" rx="70.07" ry="18"/>
<text text-anchor="middle" x="5040" y="-62.6" font-family="Times,serif" font-size="14.00">ModuleService</text>
</g>
<!-- ModuleService&#45;&gt;AppModule -->
<g id="edge37" class="edge">
<title>ModuleService&#45;&gt;AppModule</title>
<path fill="none" stroke="black" d="M5040,-85.09C5040,-107.01 5040,-140.8 5040,-140.8 5040,-140.8 3204.08,-140.8 3204.08,-140.8"/>
<polygon fill="black" stroke="black" points="3204.08,-137.3 3194.08,-140.8 3204.08,-144.3 3204.08,-137.3"/>
</g>
<!-- ParseService -->
<g id="node36" class="node">
<title>ParseService</title>
<ellipse fill="#fdb462" stroke="black" cx="4891" cy="-66.8" rx="60.82" ry="18"/>
<text text-anchor="middle" x="4891" y="-62.6" font-family="Times,serif" font-size="14.00">ParseService</text>
</g>
<!-- ParseService&#45;&gt;AppModule -->
<g id="edge38" class="edge">
<title>ParseService&#45;&gt;AppModule</title>
<path fill="none" stroke="black" d="M4891,-84.84C4891,-106.46 4891,-139.8 4891,-139.8 4891,-139.8 3203.7,-139.8 3203.7,-139.8"/>
<polygon fill="black" stroke="black" points="3203.7,-136.3 3193.7,-139.8 3203.7,-143.3 3203.7,-136.3"/>
</g>
<!-- TheaterService -->
<g id="node37" class="node">
<title>TheaterService</title>
<ellipse fill="#fdb462" stroke="black" cx="4743" cy="-66.8" rx="69.46" ry="18"/>
<text text-anchor="middle" x="4743" y="-62.6" font-family="Times,serif" font-size="14.00">TheaterService</text>
</g>
<!-- TheaterService&#45;&gt;AppModule -->
<g id="edge39" class="edge">
<title>TheaterService&#45;&gt;AppModule</title>
<path fill="none" stroke="black" d="M4743,-85.08C4743,-106.12 4743,-137.8 4743,-137.8 4743,-137.8 3203.74,-137.8 3203.74,-137.8"/>
<polygon fill="black" stroke="black" points="3203.74,-134.3 3193.74,-137.8 3203.74,-141.3 3203.74,-134.3"/>
</g>
<!-- TokenService -->
<g id="node38" class="node">
<title>TokenService</title>
<ellipse fill="#fdb462" stroke="black" cx="4591" cy="-66.8" rx="64.83" ry="18"/>
<text text-anchor="middle" x="4591" y="-62.6" font-family="Times,serif" font-size="14.00">TokenService</text>
</g>
<!-- TokenService&#45;&gt;AppModule -->
<g id="edge40" class="edge">
<title>TokenService&#45;&gt;AppModule</title>
<path fill="none" stroke="black" d="M4591,-84.93C4591,-105.37 4591,-135.8 4591,-135.8 4591,-135.8 3203.9,-135.8 3203.9,-135.8"/>
<polygon fill="black" stroke="black" points="3203.9,-132.3 3193.9,-135.8 3203.9,-139.3 3203.9,-132.3"/>
</g>
</g>
</svg>
