<?xml version="1.0" encoding="UTF-8" standalone="no"?>
<!DOCTYPE svg PUBLIC "-//W3C//DTD SVG 1.1//EN"
 "http://www.w3.org/Graphics/SVG/1.1/DTD/svg11.dtd">
<!-- Generated by graphviz version 5.0.0 (20220707.1540)
 -->
<!-- Title: dependencies Pages: 1 -->
<svg width="5413pt" height="247pt"
 viewBox="0.00 0.00 5413.00 246.80" xmlns="http://www.w3.org/2000/svg" xmlns:xlink="http://www.w3.org/1999/xlink">
<g id="graph0" class="graph" transform="scale(1 1) rotate(0) translate(4 242.8)">
<title>dependencies</title>
<polygon fill="white" stroke="transparent" points="-4,4 -4,-242.8 5409,-242.8 5409,4 -4,4"/>
<text text-anchor="middle" x="2702.5" y="-8.2" font-family="sans-serif" font-size="14.00">dependencies</text>
<g id="clust1" class="cluster">
<title>cluster_AppModule</title>
<polygon fill="none" stroke="black" stroke-dasharray="1,5" points="8,-32.8 8,-230.8 5397,-230.8 5397,-32.8 8,-32.8"/>
</g>
<g id="clust31" class="cluster">
<title>cluster_AppModule_bootstrap</title>
<polygon fill="none" stroke="black" points="3301,-170.8 3301,-222.8 3425,-222.8 3425,-170.8 3301,-170.8"/>
</g>
<g id="clust29" class="cluster">
<title>cluster_AppModule_imports</title>
<polygon fill="none" stroke="black" points="5147,-40.8 5147,-92.8 5389,-92.8 5389,-40.8 5147,-40.8"/>
</g>
<g id="clust30" class="cluster">
<title>cluster_AppModule_exports</title>
<polygon fill="none" stroke="black" points="2642,-170.8 2642,-222.8 3293,-222.8 3293,-170.8 2642,-170.8"/>
</g>
<g id="clust2" class="cluster">
<title>cluster_AppModule_declarations</title>
<polygon fill="none" stroke="black" points="624,-40.8 624,-92.8 5139,-92.8 5139,-40.8 624,-40.8"/>
</g>
<g id="clust32" class="cluster">
<title>cluster_AppModule_providers</title>
<polygon fill="none" stroke="black" points="16,-40.8 16,-92.8 616,-92.8 616,-40.8 16,-40.8"/>
</g>
<!-- AboutUsComponent -->
<g id="node1" class="node">
<title>AboutUsComponent</title>
<polygon fill="#ffffb3" stroke="black" points="5130.89,-84.8 4999.11,-84.8 4999.11,-48.8 5130.89,-48.8 5130.89,-84.8"/>
<text text-anchor="middle" x="5065" y="-62.6" font-family="Times,serif" font-size="14.00">AboutUsComponent</text>
</g>
<!-- AppModule -->
<g id="node27" class="node">
<title>AppModule</title>
<polygon fill="#8dd3c7" stroke="black" points="3105.66,-149.8 3102.66,-153.8 3081.66,-153.8 3078.66,-149.8 3022.34,-149.8 3022.34,-113.8 3105.66,-113.8 3105.66,-149.8"/>
<text text-anchor="middle" x="3064" y="-127.6" font-family="Times,serif" font-size="14.00">AppModule</text>
</g>
<!-- AboutUsComponent&#45;&gt;AppModule -->
<g id="edge1" class="edge">
<title>AboutUsComponent&#45;&gt;AppModule</title>
<path fill="none" stroke="black" d="M5065,-85.09C5065,-107.01 5065,-140.8 5065,-140.8 5065,-140.8 3115.79,-140.8 3115.79,-140.8"/>
<polygon fill="black" stroke="black" points="3115.79,-137.3 3105.79,-140.8 3115.79,-144.3 3115.79,-137.3"/>
</g>
<!-- AppComponent -->
<g id="node2" class="node">
<title>AppComponent</title>
<polygon fill="#ffffb3" stroke="black" points="4980.94,-84.8 4875.06,-84.8 4875.06,-48.8 4980.94,-48.8 4980.94,-84.8"/>
<text text-anchor="middle" x="4928" y="-62.6" font-family="Times,serif" font-size="14.00">AppComponent</text>
</g>
<!-- AppComponent&#45;&gt;AppModule -->
<g id="edge2" class="edge">
<title>AppComponent&#45;&gt;AppModule</title>
<path fill="none" stroke="black" d="M4910.43,-85.08C4910.43,-106.12 4910.43,-137.8 4910.43,-137.8 4910.43,-137.8 3116.03,-137.8 3116.03,-137.8"/>
<polygon fill="black" stroke="black" points="3116.03,-134.3 3106.03,-137.8 3116.03,-141.3 3116.03,-134.3"/>
</g>
<!-- AppComponent&#45;&gt;AppModule -->
<g id="edge3" class="edge">
<title>AppComponent&#45;&gt;AppModule</title>
<path fill="none" stroke="black" d="M4945.57,-84.84C4945.57,-106.46 4945.57,-139.8 4945.57,-139.8 4945.57,-139.8 3115.94,-139.8 3115.94,-139.8"/>
<polygon fill="black" stroke="black" points="3115.94,-136.3 3105.94,-139.8 3115.94,-143.3 3115.94,-136.3"/>
</g>
<!-- ComposerComponent -->
<g id="node3" class="node">
<title>ComposerComponent</title>
<polygon fill="#ffffb3" stroke="black" points="4857.38,-84.8 4718.62,-84.8 4718.62,-48.8 4857.38,-48.8 4857.38,-84.8"/>
<text text-anchor="middle" x="4788" y="-62.6" font-family="Times,serif" font-size="14.00">ComposerComponent</text>
</g>
<!-- ComposerComponent&#45;&gt;AppModule -->
<g id="edge4" class="edge">
<title>ComposerComponent&#45;&gt;AppModule</title>
<path fill="none" stroke="black" d="M4764.85,-85.11C4764.85,-104.95 4764.85,-133.8 4764.85,-133.8 4764.85,-133.8 3116.04,-133.8 3116.04,-133.8"/>
<polygon fill="black" stroke="black" points="3116.04,-130.3 3106.04,-133.8 3116.04,-137.3 3116.04,-130.3"/>
</g>
<!-- ComposerComponent&#45;&gt;AppModule -->
<g id="edge5" class="edge">
<title>ComposerComponent&#45;&gt;AppModule</title>
<path fill="none" stroke="black" d="M4811.15,-84.93C4811.15,-105.37 4811.15,-135.8 4811.15,-135.8 4811.15,-135.8 3115.89,-135.8 3115.89,-135.8"/>
<polygon fill="black" stroke="black" points="3115.89,-132.3 3105.89,-135.8 3115.89,-139.3 3115.89,-132.3"/>
</g>
<!-- DataInputComponent -->
<g id="node4" class="node">
<title>DataInputComponent</title>
<polygon fill="#ffffb3" stroke="black" points="4700.81,-84.8 4563.19,-84.8 4563.19,-48.8 4700.81,-48.8 4700.81,-84.8"/>
<text text-anchor="middle" x="4632" y="-62.6" font-family="Times,serif" font-size="14.00">DataInputComponent</text>
</g>
<!-- DataInputComponent&#45;&gt;AppModule -->
<g id="edge6" class="edge">
<title>DataInputComponent&#45;&gt;AppModule</title>
<path fill="none" stroke="black" d="M4632,-84.91C4632,-104.14 4632,-131.8 4632,-131.8 4632,-131.8 3115.94,-131.8 3115.94,-131.8"/>
<polygon fill="black" stroke="black" points="3115.94,-128.3 3105.94,-131.8 3115.94,-135.3 3115.94,-128.3"/>
</g>
<!-- DataInputV2Component -->
<g id="node5" class="node">
<title>DataInputV2Component</title>
<polygon fill="#ffffb3" stroke="black" points="4545.42,-84.8 4390.58,-84.8 4390.58,-48.8 4545.42,-48.8 4545.42,-84.8"/>
<text text-anchor="middle" x="4468" y="-62.6" font-family="Times,serif" font-size="14.00">DataInputV2Component</text>
</g>
<!-- DataInputV2Component&#45;&gt;AppModule -->
<g id="edge7" class="edge">
<title>DataInputV2Component&#45;&gt;AppModule</title>
<path fill="none" stroke="black" d="M4468,-84.97C4468,-103.89 4468,-130.8 4468,-130.8 4468,-130.8 3116.02,-130.8 3116.02,-130.8"/>
<polygon fill="black" stroke="black" points="3116.02,-127.3 3106.02,-130.8 3116.02,-134.3 3116.02,-127.3"/>
</g>
<!-- DataItemComponent -->
<g id="node6" class="node">
<title>DataItemComponent</title>
<polygon fill="#ffffb3" stroke="black" points="4372.91,-84.8 4239.09,-84.8 4239.09,-48.8 4372.91,-48.8 4372.91,-84.8"/>
<text text-anchor="middle" x="4306" y="-62.6" font-family="Times,serif" font-size="14.00">DataItemComponent</text>
</g>
<!-- DataItemComponent&#45;&gt;AppModule -->
<g id="edge8" class="edge">
<title>DataItemComponent&#45;&gt;AppModule</title>
<path fill="none" stroke="black" d="M4306,-85.07C4306,-103.36 4306,-128.8 4306,-128.8 4306,-128.8 3115.68,-128.8 3115.68,-128.8"/>
<polygon fill="black" stroke="black" points="3115.68,-125.3 3105.68,-128.8 3115.68,-132.3 3115.68,-125.3"/>
</g>
<!-- DocsComponent -->
<g id="node7" class="node">
<title>DocsComponent</title>
<polygon fill="#ffffb3" stroke="black" points="4221.1,-84.8 4110.9,-84.8 4110.9,-48.8 4221.1,-48.8 4221.1,-84.8"/>
<text text-anchor="middle" x="4166" y="-62.6" font-family="Times,serif" font-size="14.00">DocsComponent</text>
</g>
<!-- DocsComponent&#45;&gt;AppModule -->
<g id="edge9" class="edge">
<title>DocsComponent&#45;&gt;AppModule</title>
<path fill="none" stroke="black" d="M4166,-84.8C4166,-102.48 4166,-126.8 4166,-126.8 4166,-126.8 3115.85,-126.8 3115.85,-126.8"/>
<polygon fill="black" stroke="black" points="3115.85,-123.3 3105.85,-126.8 3115.85,-130.3 3115.85,-123.3"/>
</g>
<!-- HomeComponent -->
<g id="node8" class="node">
<title>HomeComponent</title>
<polygon fill="#ffffb3" stroke="black" points="4092.55,-84.8 3977.45,-84.8 3977.45,-48.8 4092.55,-48.8 4092.55,-84.8"/>
<text text-anchor="middle" x="4035" y="-62.6" font-family="Times,serif" font-size="14.00">HomeComponent</text>
</g>
<!-- HomeComponent&#45;&gt;AppModule -->
<g id="edge10" class="edge">
<title>HomeComponent&#45;&gt;AppModule</title>
<path fill="none" stroke="black" d="M4035,-84.83C4035,-101.86 4035,-124.8 4035,-124.8 4035,-124.8 3115.72,-124.8 3115.72,-124.8"/>
<polygon fill="black" stroke="black" points="3115.72,-121.3 3105.72,-124.8 3115.72,-128.3 3115.72,-121.3"/>
</g>
<!-- HostComponent -->
<g id="node9" class="node">
<title>HostComponent</title>
<polygon fill="#ffffb3" stroke="black" points="3958.78,-84.8 3851.22,-84.8 3851.22,-48.8 3958.78,-48.8 3958.78,-84.8"/>
<text text-anchor="middle" x="3905" y="-62.6" font-family="Times,serif" font-size="14.00">HostComponent</text>
</g>
<!-- HostComponent&#45;&gt;AppModule -->
<g id="edge11" class="edge">
<title>HostComponent&#45;&gt;AppModule</title>
<path fill="none" stroke="black" d="M3905,-84.83C3905,-101.2 3905,-122.8 3905,-122.8 3905,-122.8 3115.71,-122.8 3115.71,-122.8"/>
<polygon fill="black" stroke="black" points="3115.71,-119.3 3105.71,-122.8 3115.71,-126.3 3115.71,-119.3"/>
</g>
<!-- HowToUseComponent -->
<g id="node10" class="node">
<title>HowToUseComponent</title>
<polygon fill="#ffffb3" stroke="black" points="3832.88,-84.8 3687.12,-84.8 3687.12,-48.8 3832.88,-48.8 3832.88,-84.8"/>
<text text-anchor="middle" x="3760" y="-62.6" font-family="Times,serif" font-size="14.00">HowToUseComponent</text>
</g>
<!-- HowToUseComponent&#45;&gt;AppModule -->
<g id="edge12" class="edge">
<title>HowToUseComponent&#45;&gt;AppModule</title>
<path fill="none" stroke="black" d="M3760,-84.81C3760,-100.85 3760,-121.8 3760,-121.8 3760,-121.8 3115.71,-121.8 3115.71,-121.8"/>
<polygon fill="black" stroke="black" points="3115.71,-118.3 3105.71,-121.8 3115.71,-125.3 3115.71,-118.3"/>
</g>
<!-- MirroringModuleInstanceComponent -->
<g id="node11" class="node">
<title>MirroringModuleInstanceComponent</title>
<polygon fill="#ffffb3" stroke="black" points="3669.24,-84.8 3442.76,-84.8 3442.76,-48.8 3669.24,-48.8 3669.24,-84.8"/>
<text text-anchor="middle" x="3556" y="-62.6" font-family="Times,serif" font-size="14.00">MirroringModuleInstanceComponent</text>
</g>
<!-- MirroringModuleInstanceComponent&#45;&gt;AppModule -->
<g id="edge13" class="edge">
<title>MirroringModuleInstanceComponent&#45;&gt;AppModule</title>
<path fill="none" stroke="black" d="M3556,-85.04C3556,-100.37 3556,-119.8 3556,-119.8 3556,-119.8 3115.95,-119.8 3115.95,-119.8"/>
<polygon fill="black" stroke="black" points="3115.95,-116.3 3105.95,-119.8 3115.95,-123.3 3115.95,-116.3"/>
</g>
<!-- ModalComponent -->
<g id="node12" class="node">
<title>ModalComponent</title>
<polygon fill="#ffffb3" stroke="black" points="3424.88,-84.8 3307.12,-84.8 3307.12,-48.8 3424.88,-48.8 3424.88,-84.8"/>
<text text-anchor="middle" x="3366" y="-62.6" font-family="Times,serif" font-size="14.00">ModalComponent</text>
</g>
<!-- ModalComponent&#45;&gt;AppModule -->
<g id="edge14" class="edge">
<title>ModalComponent&#45;&gt;AppModule</title>
<path fill="none" stroke="black" d="M3344.84,-84.92C3344.84,-99.58 3344.84,-117.8 3344.84,-117.8 3344.84,-117.8 3115.74,-117.8 3115.74,-117.8"/>
<polygon fill="black" stroke="black" points="3115.74,-114.3 3105.74,-117.8 3115.74,-121.3 3115.74,-114.3"/>
</g>
<!-- NavbarComponent -->
<g id="node13" class="node">
<title>NavbarComponent</title>
<polygon fill="#ffffb3" stroke="black" points="3289.03,-84.8 3166.97,-84.8 3166.97,-48.8 3289.03,-48.8 3289.03,-84.8"/>
<text text-anchor="middle" x="3228" y="-62.6" font-family="Times,serif" font-size="14.00">NavbarComponent</text>
</g>
<!-- NavbarComponent&#45;&gt;AppModule -->
<g id="edge15" class="edge">
<title>NavbarComponent&#45;&gt;AppModule</title>
<path fill="none" stroke="black" d="M3226.07,-85.05C3226.07,-98.98 3226.07,-115.8 3226.07,-115.8 3226.07,-115.8 3115.74,-115.8 3115.74,-115.8"/>
<polygon fill="black" stroke="black" points="3115.74,-112.3 3105.74,-115.8 3115.74,-119.3 3115.74,-112.3"/>
</g>
<!-- NavbarElementComponent -->
<g id="node14" class="node">
<title>NavbarElementComponent</title>
<polygon fill="#ffffb3" stroke="black" points="3148.68,-84.8 2979.32,-84.8 2979.32,-48.8 3148.68,-48.8 3148.68,-84.8"/>
<text text-anchor="middle" x="3064" y="-62.6" font-family="Times,serif" font-size="14.00">NavbarElementComponent</text>
</g>
<!-- NavbarElementComponent&#45;&gt;AppModule -->
<g id="edge16" class="edge">
<title>NavbarElementComponent&#45;&gt;AppModule</title>
<path fill="none" stroke="black" d="M3064,-84.91C3064,-84.91 3064,-103.79 3064,-103.79"/>
<polygon fill="black" stroke="black" points="3060.5,-103.79 3064,-113.79 3067.5,-103.79 3060.5,-103.79"/>
</g>
<!-- NetworkComponent -->
<g id="node15" class="node">
<title>NetworkComponent</title>
<polygon fill="#ffffb3" stroke="black" points="2961.32,-84.8 2830.68,-84.8 2830.68,-48.8 2961.32,-48.8 2961.32,-84.8"/>
<text text-anchor="middle" x="2896" y="-62.6" font-family="Times,serif" font-size="14.00">NetworkComponent</text>
</g>
<!-- NetworkComponent&#45;&gt;AppModule -->
<g id="edge17" class="edge">
<title>NetworkComponent&#45;&gt;AppModule</title>
<path fill="none" stroke="black" d="M2896,-85.05C2896,-98.98 2896,-115.8 2896,-115.8 2896,-115.8 3012.04,-115.8 3012.04,-115.8"/>
<polygon fill="black" stroke="black" points="3012.04,-119.3 3022.04,-115.8 3012.04,-112.3 3012.04,-119.3"/>
</g>
<!-- OffcanvasComponent -->
<g id="node16" class="node">
<title>OffcanvasComponent</title>
<polygon fill="#ffffb3" stroke="black" points="2812.36,-84.8 2673.64,-84.8 2673.64,-48.8 2812.36,-48.8 2812.36,-84.8"/>
<text text-anchor="middle" x="2743" y="-62.6" font-family="Times,serif" font-size="14.00">OffcanvasComponent</text>
</g>
<!-- OffcanvasComponent&#45;&gt;AppModule -->
<g id="edge18" class="edge">
<title>OffcanvasComponent&#45;&gt;AppModule</title>
<path fill="none" stroke="black" d="M2801.42,-84.92C2801.42,-99.58 2801.42,-117.8 2801.42,-117.8 2801.42,-117.8 3012.1,-117.8 3012.1,-117.8"/>
<polygon fill="black" stroke="black" points="3012.1,-121.3 3022.1,-117.8 3012.1,-114.3 3012.1,-121.3"/>
</g>
<!-- ReteModuleComposerComponent -->
<g id="node17" class="node">
<title>ReteModuleComposerComponent</title>
<polygon fill="#ffffb3" stroke="black" points="2656.09,-84.8 2447.91,-84.8 2447.91,-48.8 2656.09,-48.8 2656.09,-84.8"/>
<text text-anchor="middle" x="2552" y="-62.6" font-family="Times,serif" font-size="14.00">ReteModuleComposerComponent</text>
</g>
<!-- ReteModuleComposerComponent&#45;&gt;AppModule -->
<g id="edge19" class="edge">
<title>ReteModuleComposerComponent&#45;&gt;AppModule</title>
<path fill="none" stroke="black" d="M2548.89,-85.04C2548.89,-100.37 2548.89,-119.8 2548.89,-119.8 2548.89,-119.8 3012.28,-119.8 3012.28,-119.8"/>
<polygon fill="black" stroke="black" points="3012.28,-123.3 3022.28,-119.8 3012.28,-116.3 3012.28,-123.3"/>
</g>
<!-- ReteModuleVisualizerComponent -->
<g id="node18" class="node">
<title>ReteModuleVisualizerComponent</title>
<polygon fill="#ffffb3" stroke="black" points="2430.07,-84.8 2221.93,-84.8 2221.93,-48.8 2430.07,-48.8 2430.07,-84.8"/>
<text text-anchor="middle" x="2326" y="-62.6" font-family="Times,serif" font-size="14.00">ReteModuleVisualizerComponent</text>
</g>
<!-- ReteModuleVisualizerComponent&#45;&gt;AppModule -->
<g id="edge20" class="edge">
<title>ReteModuleVisualizerComponent&#45;&gt;AppModule</title>
<path fill="none" stroke="black" d="M2326,-84.81C2326,-100.85 2326,-121.8 2326,-121.8 2326,-121.8 3012.21,-121.8 3012.21,-121.8"/>
<polygon fill="black" stroke="black" points="3012.21,-125.3 3022.21,-121.8 3012.21,-118.3 3012.21,-125.3"/>
</g>
<!-- ReteTheaterComposerComponent -->
<g id="node19" class="node">
<title>ReteTheaterComposerComponent</title>
<polygon fill="#ffffb3" stroke="black" points="2203.78,-84.8 1996.22,-84.8 1996.22,-48.8 2203.78,-48.8 2203.78,-84.8"/>
<text text-anchor="middle" x="2100" y="-62.6" font-family="Times,serif" font-size="14.00">ReteTheaterComposerComponent</text>
</g>
<!-- ReteTheaterComposerComponent&#45;&gt;AppModule -->
<g id="edge21" class="edge">
<title>ReteTheaterComposerComponent&#45;&gt;AppModule</title>
<path fill="none" stroke="black" d="M2100,-84.83C2100,-101.2 2100,-122.8 2100,-122.8 2100,-122.8 3012.27,-122.8 3012.27,-122.8"/>
<polygon fill="black" stroke="black" points="3012.27,-126.3 3022.27,-122.8 3012.27,-119.3 3012.27,-126.3"/>
</g>
<!-- ReteTheaterVisualizerComponent -->
<g id="node20" class="node">
<title>ReteTheaterVisualizerComponent</title>
<polygon fill="#ffffb3" stroke="black" points="1978.76,-84.8 1771.24,-84.8 1771.24,-48.8 1978.76,-48.8 1978.76,-84.8"/>
<text text-anchor="middle" x="1875" y="-62.6" font-family="Times,serif" font-size="14.00">ReteTheaterVisualizerComponent</text>
</g>
<!-- ReteTheaterVisualizerComponent&#45;&gt;AppModule -->
<g id="edge22" class="edge">
<title>ReteTheaterVisualizerComponent&#45;&gt;AppModule</title>
<path fill="none" stroke="black" d="M1875,-84.83C1875,-101.86 1875,-124.8 1875,-124.8 1875,-124.8 3012.03,-124.8 3012.03,-124.8"/>
<polygon fill="black" stroke="black" points="3012.03,-128.3 3022.03,-124.8 3012.03,-121.3 3012.03,-128.3"/>
</g>
<!-- SubnetComponent -->
<g id="node21" class="node">
<title>SubnetComponent</title>
<polygon fill="#ffffb3" stroke="black" points="1753.22,-84.8 1632.78,-84.8 1632.78,-48.8 1753.22,-48.8 1753.22,-84.8"/>
<text text-anchor="middle" x="1693" y="-62.6" font-family="Times,serif" font-size="14.00">SubnetComponent</text>
</g>
<!-- SubnetComponent&#45;&gt;AppModule -->
<g id="edge23" class="edge">
<title>SubnetComponent&#45;&gt;AppModule</title>
<path fill="none" stroke="black" d="M1693,-84.8C1693,-102.48 1693,-126.8 1693,-126.8 1693,-126.8 3012.22,-126.8 3012.22,-126.8"/>
<polygon fill="black" stroke="black" points="3012.22,-130.3 3022.22,-126.8 3012.22,-123.3 3012.22,-130.3"/>
</g>
<!-- TabnavComponent -->
<g id="node22" class="node">
<title>TabnavComponent</title>
<polygon fill="#ffffb3" stroke="black" points="1614.81,-84.8 1491.19,-84.8 1491.19,-48.8 1614.81,-48.8 1614.81,-84.8"/>
<text text-anchor="middle" x="1553" y="-62.6" font-family="Times,serif" font-size="14.00">TabnavComponent</text>
</g>
<!-- TabnavComponent&#45;&gt;AppModule -->
<g id="edge24" class="edge">
<title>TabnavComponent&#45;&gt;AppModule</title>
<path fill="none" stroke="black" d="M1553,-85.07C1553,-103.36 1553,-128.8 1553,-128.8 1553,-128.8 3012.01,-128.8 3012.01,-128.8"/>
<polygon fill="black" stroke="black" points="3012.01,-132.3 3022.01,-128.8 3012.01,-125.3 3012.01,-132.3"/>
</g>
<!-- TheaterInternalServiceModuleInstanceComponent -->
<g id="node23" class="node">
<title>TheaterInternalServiceModuleInstanceComponent</title>
<polygon fill="#ffffb3" stroke="black" points="1472.78,-84.8 1173.22,-84.8 1173.22,-48.8 1472.78,-48.8 1472.78,-84.8"/>
<text text-anchor="middle" x="1323" y="-62.6" font-family="Times,serif" font-size="14.00">TheaterInternalServiceModuleInstanceComponent</text>
</g>
<!-- TheaterInternalServiceModuleInstanceComponent&#45;&gt;AppModule -->
<g id="edge25" class="edge">
<title>TheaterInternalServiceModuleInstanceComponent&#45;&gt;AppModule</title>
<path fill="none" stroke="black" d="M1323,-84.97C1323,-103.89 1323,-130.8 1323,-130.8 1323,-130.8 3012.25,-130.8 3012.25,-130.8"/>
<polygon fill="black" stroke="black" points="3012.25,-134.3 3022.25,-130.8 3012.25,-127.3 3012.25,-134.3"/>
</g>
<!-- TheaterModuleInstanceComponent -->
<g id="node24" class="node">
<title>TheaterModuleInstanceComponent</title>
<polygon fill="#ffffb3" stroke="black" points="1155.27,-84.8 940.73,-84.8 940.73,-48.8 1155.27,-48.8 1155.27,-84.8"/>
<text text-anchor="middle" x="1048" y="-62.6" font-family="Times,serif" font-size="14.00">TheaterModuleInstanceComponent</text>
</g>
<!-- TheaterModuleInstanceComponent&#45;&gt;AppModule -->
<g id="edge26" class="edge">
<title>TheaterModuleInstanceComponent&#45;&gt;AppModule</title>
<path fill="none" stroke="black" d="M1048,-84.91C1048,-104.14 1048,-131.8 1048,-131.8 1048,-131.8 3011.89,-131.8 3011.89,-131.8"/>
<polygon fill="black" stroke="black" points="3011.89,-135.3 3021.89,-131.8 3011.89,-128.3 3011.89,-135.3"/>
</g>
<!-- UnderbarComponent -->
<g id="node25" class="node">
<title>UnderbarComponent</title>
<polygon fill="#ffffb3" stroke="black" points="923.19,-84.8 788.81,-84.8 788.81,-48.8 923.19,-48.8 923.19,-84.8"/>
<text text-anchor="middle" x="856" y="-62.6" font-family="Times,serif" font-size="14.00">UnderbarComponent</text>
</g>
<!-- UnderbarComponent&#45;&gt;AppModule -->
<g id="edge27" class="edge">
<title>UnderbarComponent&#45;&gt;AppModule</title>
<path fill="none" stroke="black" d="M856,-85.11C856,-104.95 856,-133.8 856,-133.8 856,-133.8 3011.86,-133.8 3011.86,-133.8"/>
<polygon fill="black" stroke="black" points="3011.86,-137.3 3021.86,-133.8 3011.86,-130.3 3011.86,-137.3"/>
</g>
<!-- VisualizerComponent -->
<g id="node26" class="node">
<title>VisualizerComponent</title>
<polygon fill="#ffffb3" stroke="black" points="770.36,-84.8 631.64,-84.8 631.64,-48.8 770.36,-48.8 770.36,-84.8"/>
<text text-anchor="middle" x="701" y="-62.6" font-family="Times,serif" font-size="14.00">VisualizerComponent</text>
</g>
<!-- VisualizerComponent&#45;&gt;AppModule -->
<g id="edge28" class="edge">
<title>VisualizerComponent&#45;&gt;AppModule</title>
<path fill="none" stroke="black" d="M677.86,-85.08C677.86,-106.12 677.86,-137.8 677.86,-137.8 677.86,-137.8 3012.33,-137.8 3012.33,-137.8"/>
<polygon fill="black" stroke="black" points="3012.33,-141.3 3022.33,-137.8 3012.33,-134.3 3012.33,-141.3"/>
</g>
<!-- VisualizerComponent&#45;&gt;AppModule -->
<g id="edge29" class="edge">
<title>VisualizerComponent&#45;&gt;AppModule</title>
<path fill="none" stroke="black" d="M724.14,-84.93C724.14,-105.37 724.14,-135.8 724.14,-135.8 724.14,-135.8 3012.14,-135.8 3012.14,-135.8"/>
<polygon fill="black" stroke="black" points="3012.14,-139.3 3022.14,-135.8 3012.14,-132.3 3012.14,-139.3"/>
</g>
<!-- DataInputComponent  -->
<g id="node30" class="node">
<title>DataInputComponent </title>
<polygon fill="#fb8072" stroke="black" points="3285.31,-214.8 3144.69,-214.8 3144.69,-178.8 3285.31,-178.8 3285.31,-214.8"/>
<text text-anchor="middle" x="3215" y="-192.6" font-family="Times,serif" font-size="14.00">DataInputComponent </text>
</g>
<!-- AppModule&#45;&gt;DataInputComponent  -->
<g id="edge32" class="edge">
<title>AppModule&#45;&gt;DataInputComponent </title>
<path fill="none" stroke="black" stroke-dasharray="5,2" d="M3105.9,-148.8C3130.84,-148.8 3157.66,-148.8 3157.66,-148.8 3157.66,-148.8 3157.66,-168.65 3157.66,-168.65"/>
<polygon fill="black" stroke="black" points="3154.16,-168.65 3157.66,-178.65 3161.16,-168.65 3154.16,-168.65"/>
</g>
<!-- NavbarComponent  -->
<g id="node31" class="node">
<title>NavbarComponent </title>
<polygon fill="#fb8072" stroke="black" points="3127.03,-214.8 3000.97,-214.8 3000.97,-178.8 3127.03,-178.8 3127.03,-214.8"/>
<text text-anchor="middle" x="3064" y="-192.6" font-family="Times,serif" font-size="14.00">NavbarComponent </text>
</g>
<!-- AppModule&#45;&gt;NavbarComponent  -->
<g id="edge33" class="edge">
<title>AppModule&#45;&gt;NavbarComponent </title>
<path fill="none" stroke="black" stroke-dasharray="5,2" d="M3064,-149.91C3064,-149.91 3064,-168.79 3064,-168.79"/>
<polygon fill="black" stroke="black" points="3060.5,-168.79 3064,-178.79 3067.5,-168.79 3060.5,-168.79"/>
</g>
<!-- NavbarElementComponent  -->
<g id="node32" class="node">
<title>NavbarElementComponent </title>
<polygon fill="#fb8072" stroke="black" points="2983.18,-214.8 2810.82,-214.8 2810.82,-178.8 2983.18,-178.8 2983.18,-214.8"/>
<text text-anchor="middle" x="2897" y="-192.6" font-family="Times,serif" font-size="14.00">NavbarElementComponent </text>
</g>
<!-- AppModule&#45;&gt;NavbarElementComponent  -->
<g id="edge34" class="edge">
<title>AppModule&#45;&gt;NavbarElementComponent </title>
<path fill="none" stroke="black" stroke-dasharray="5,2" d="M3022.08,-148.8C2997.12,-148.8 2970.28,-148.8 2970.28,-148.8 2970.28,-148.8 2970.28,-168.65 2970.28,-168.65"/>
<polygon fill="black" stroke="black" points="2966.78,-168.65 2970.28,-178.65 2973.78,-168.65 2966.78,-168.65"/>
</g>
<!-- OffcanvasComponent  -->
<g id="node33" class="node">
<title>OffcanvasComponent </title>
<polygon fill="#fb8072" stroke="black" points="2792.36,-214.8 2649.64,-214.8 2649.64,-178.8 2792.36,-178.8 2792.36,-214.8"/>
<text text-anchor="middle" x="2721" y="-192.6" font-family="Times,serif" font-size="14.00">OffcanvasComponent </text>
</g>
<!-- AppModule&#45;&gt;OffcanvasComponent  -->
<g id="edge35" class="edge">
<title>AppModule&#45;&gt;OffcanvasComponent </title>
<path fill="none" stroke="black" stroke-dasharray="5,2" d="M3022.06,-146.8C2932.96,-146.8 2732.88,-146.8 2732.88,-146.8 2732.88,-146.8 2732.88,-168.75 2732.88,-168.75"/>
<polygon fill="black" stroke="black" points="2729.38,-168.75 2732.88,-178.75 2736.38,-168.75 2729.38,-168.75"/>
</g>
<!-- AppComponent  -->
<g id="node34" class="node">
<title>AppComponent </title>
<polygon fill="#80b1d3" stroke="black" points="3417.44,-214.8 3308.56,-214.8 3308.56,-178.8 3417.44,-178.8 3417.44,-214.8"/>
<text text-anchor="middle" x="3363" y="-192.6" font-family="Times,serif" font-size="14.00">AppComponent </text>
</g>
<!-- AppModule&#45;&gt;AppComponent  -->
<g id="edge36" class="edge">
<title>AppModule&#45;&gt;AppComponent </title>
<path fill="none" stroke="black" stroke-dasharray="1,5" d="M3105.79,-146.8C3191.91,-146.8 3381.16,-146.8 3381.16,-146.8 3381.16,-146.8 3381.16,-168.75 3381.16,-168.75"/>
<polygon fill="black" stroke="black" points="3377.66,-168.75 3381.16,-178.75 3384.66,-168.75 3377.66,-168.75"/>
</g>
<!-- AppRoutingModule -->
<g id="node28" class="node">
<title>AppRoutingModule</title>
<polygon fill="#8dd3c7" stroke="black" points="5381.28,-84.8 5378.28,-88.8 5357.28,-88.8 5354.28,-84.8 5252.72,-84.8 5252.72,-48.8 5381.28,-48.8 5381.28,-84.8"/>
<text text-anchor="middle" x="5317" y="-62.6" font-family="Times,serif" font-size="14.00">AppRoutingModule</text>
</g>
<!-- AppRoutingModule&#45;&gt;AppModule -->
<g id="edge30" class="edge">
<title>AppRoutingModule&#45;&gt;AppModule</title>
<path fill="none" stroke="black" d="M5317,-84.89C5317,-107.93 5317,-144.8 5317,-144.8 5317,-144.8 3116.01,-144.8 3116.01,-144.8"/>
<polygon fill="black" stroke="black" points="3116.01,-141.3 3106.01,-144.8 3116.01,-148.3 3116.01,-141.3"/>
</g>
<!-- NgxPopper -->
<g id="node29" class="node">
<title>NgxPopper</title>
<polygon fill="#8dd3c7" stroke="black" points="5234.77,-84.8 5231.77,-88.8 5210.77,-88.8 5207.77,-84.8 5155.23,-84.8 5155.23,-48.8 5234.77,-48.8 5234.77,-84.8"/>
<text text-anchor="middle" x="5195" y="-62.6" font-family="Times,serif" font-size="14.00">NgxPopper</text>
</g>
<!-- NgxPopper&#45;&gt;AppModule -->
<g id="edge31" class="edge">
<title>NgxPopper&#45;&gt;AppModule</title>
<path fill="none" stroke="black" d="M5195,-84.81C5195,-107.29 5195,-142.8 5195,-142.8 5195,-142.8 3116.09,-142.8 3116.09,-142.8"/>
<polygon fill="black" stroke="black" points="3116.09,-139.3 3106.09,-142.8 3116.09,-146.3 3116.09,-139.3"/>
</g>
<!-- ModuleService -->
<g id="node35" class="node">
<title>ModuleService</title>
<ellipse fill="#fdb462" stroke="black" cx="538" cy="-66.8" rx="70.07" ry="18"/>
<text text-anchor="middle" x="538" y="-62.6" font-family="Times,serif" font-size="14.00">ModuleService</text>
</g>
<!-- ModuleService&#45;&gt;AppModule -->
<g id="edge37" class="edge">
<title>ModuleService&#45;&gt;AppModule</title>
<path fill="none" stroke="black" d="M538,-84.84C538,-106.46 538,-139.8 538,-139.8 538,-139.8 3012.26,-139.8 3012.26,-139.8"/>
<polygon fill="black" stroke="black" points="3012.26,-143.3 3022.26,-139.8 3012.26,-136.3 3012.26,-143.3"/>
</g>
<!-- ParseService -->
<g id="node36" class="node">
<title>ParseService</title>
<ellipse fill="#fdb462" stroke="black" cx="389" cy="-66.8" rx="60.82" ry="18"/>
<text text-anchor="middle" x="389" y="-62.6" font-family="Times,serif" font-size="14.00">ParseService</text>
</g>
<!-- ParseService&#45;&gt;AppModule -->
<g id="edge38" class="edge">
<title>ParseService&#45;&gt;AppModule</title>
<path fill="none" stroke="black" d="M389,-85.09C389,-107.01 389,-140.8 389,-140.8 389,-140.8 3012.25,-140.8 3012.25,-140.8"/>
<polygon fill="black" stroke="black" points="3012.25,-144.3 3022.25,-140.8 3012.25,-137.3 3012.25,-144.3"/>
</g>
<!-- TheaterService -->
<g id="node37" class="node">
<title>TheaterService</title>
<ellipse fill="#fdb462" stroke="black" cx="241" cy="-66.8" rx="69.46" ry="18"/>
<text text-anchor="middle" x="241" y="-62.6" font-family="Times,serif" font-size="14.00">TheaterService</text>
</g>
<!-- TheaterService&#45;&gt;AppModule -->
<g id="edge39" class="edge">
<title>TheaterService&#45;&gt;AppModule</title>
<path fill="none" stroke="black" d="M241,-84.81C241,-107.29 241,-142.8 241,-142.8 241,-142.8 3012.18,-142.8 3012.18,-142.8"/>
<polygon fill="black" stroke="black" points="3012.18,-146.3 3022.18,-142.8 3012.18,-139.3 3012.18,-146.3"/>
</g>
<!-- TokenService -->
<g id="node38" class="node">
<title>TokenService</title>
<ellipse fill="#fdb462" stroke="black" cx="89" cy="-66.8" rx="64.83" ry="18"/>
<text text-anchor="middle" x="89" y="-62.6" font-family="Times,serif" font-size="14.00">TokenService</text>
</g>
<!-- TokenService&#45;&gt;AppModule -->
<g id="edge40" class="edge">
<title>TokenService&#45;&gt;AppModule</title>
<path fill="none" stroke="black" d="M89,-84.89C89,-107.93 89,-144.8 89,-144.8 89,-144.8 3012.23,-144.8 3012.23,-144.8"/>
<polygon fill="black" stroke="black" points="3012.23,-148.3 3022.23,-144.8 3012.23,-141.3 3012.23,-148.3"/>
</g>
</g>
</svg>
